<svg height="476.908" width="448.208" xmlns="http://www.w3.org/2000/svg"><path clip-rule="evenodd" d="m108.75 475.288c1.065-.658 2.13-1.315 3.196-1.974-6.724-.754-13.447-1.509-20.171-2.263 7.258-3.564 12.734-10.225 21.612-7.615 8.659 2.545 16.423.32 21.978-6.903 5.956-7.746 8.5-20.846 10.918-30.174 2.91-11.223 3.679-22.632 5.468-34.03-13.705 2.342-19.491-6.675-27.16-16.136-8.757-10.804-19.204-20.321-31.67-26.655-13.682-6.952-23.116-19.682-33.338-30.867-11.432-12.508-23.343-24.435-35.313-36.434-10.406-10.432-20.42-19.675-23.14-34.805-2.741-15.249-.303-31.538 5.237-45.887 5.667-14.68 14.086-28.535 21.648-42.299 7.573-13.783 15.136-27.571 22.682-41.368-6.691-1.668-16.857-1.505-18.915-9.486-2.623-10.172 7.334-16.415 13.77-22.342-7.708-1.178-15.252 3.653-22.885.845l11.556-13.92c-6.943-3.535-7.087-11.399-5.132-18.049 1.952-6.644.28-9.509 8.299-10.312-.596-3.167-1.19-6.333-1.786-9.499-1.25-6.652 4.994.725 6.788 2.387 5.098 4.722 2.25-3.405 1.69-6.016-.934-4.354-1.402-7.144-.188-11.418 5.91 3.261 8.995 8.521 13.041 13.876 3.221-7.034-2.212-15.172 2.403-21.774 1.461 2.369 8.884 16.23 10.642 15.155.737-9.109 1.476-18.217 2.213-27.325 5.362 7.286 3.506 17.508 10.035 24.244 2.293-5.966 4.586-11.933 6.879-17.898 1.497 3.841 2.993 7.683 4.489 11.524 3.618 0 7.911-.59 10.866 2.011 6.821 6.002-2.151 15.789-6.989 19.544-2.312 1.793-8.96 4.173-9.597 7.209-.672 3.201 6.352 5.876 8.389 6.922 8.195 4.207 16.239 6.559 23.096 13.106 13.876 13.25 19.419 31.99 22.191 50.415 3.243 21.56 6.928 43.222 12.552 64.313 4.739 17.772 25.093 22.667 40.89 25.732 8.637 1.676 19.855 3.785 28.055-.499 8.631-4.509 14.717-16.169 20.505-23.708 23.271-30.315 50.46-64.612 92.149-66.37 11.202-.473 22.243 1.999 33.165 4.185 10.269 2.056 20.719 4.317 29.893 9.571 16.485 9.441 30.35 26.154 39.068 42.833 19.342 37 11.591 87.481-22.709 112.958 4.889-17.078 16.305-31.608 20.301-49.216 1.914-8.429 2.374-17.181.993-25.729-1.149-7.118-3.662-18.779-9.281-23.748.583 11.333 1.926 22.849.845 34.185-1.029 10.79-4.078 21.286-8.16 31.296-4.246 10.415-9.296 20.528-14.312 30.589-2.336 4.686-4.7 9.356-7.06 14.03-1.685 3.336-4.873 13.894-8.467 15.23 7.373-34.884 19.327-70.009 13.263-106.075-2.06 8.035-4.387 16.438-14.313 16.413.4 5.484 1.942 11.748-1.3 16.701-3.196 4.882-9.271 6.065-14.47 7.604-3.197.946-6.392 1.905-9.589 2.853.786 3.87 1.689 7.718 2.394 11.604.955 5.279.44 10.3-4.715 13.106-4.468 2.433-9.839 1.955-14.738 1.936-3.56-.015-6.369-1.156-8.296 2.124-2.09 3.557-4.062 7.184-6.253 10.68-3.859 6.158-8.714 11.173-14.052 16.053-2.076 1.897-4.145 5.648-6.667 3.727 1.453-4.337 2.907-8.673 4.361-13.009-2.145-.998-16.71 20.212-18.888 23.019-2.826-7.353-5.652-14.704-8.479-22.057-3.807 14.366-8.063 29.341-24.069 33.326 0-2.313 1.069-12.059-1.033-12.447-2.513 3.771-5.024 7.541-7.536 11.312-1.717-2.926-5.39-12.672-9.222-12.858-4.668-.227-9.9 4.177-12.71 7.477-7.778 9.136-9.949 20.205-21.77 25.819-.275-1.197-.55-2.395-.824-3.592-3.162 3.706-4.501 8.539-8.019 12.111-4.122 4.185-5.471 5.227-5.55 11.419-.169 13.4-4.095 25.228-8.206 37.812-4.112 12.586-7.738 25.323-11.396 38.046-1.163 4.045-4.098 9.384-.199 12.874 3.721 3.33 7.125 7.101 7.564 12.312-2.94-.17-5.88-.339-8.821-.508-1.54-.089-3.081-.178-4.621-.267-.326 1.494-.955 3.006-2.194 3.976-3.229 2.523-10.096 1.135-14.028 1.783-8.323 1.372-17.093.948-25.467.279-4.276-.342-8.542-.802-12.821-1.114-1.945-.143-8.135 1.366-8.565.12.947-.585.113.327 0 0zm49.079-18.364c3.473-10.139 7.31-20.07 9.89-30.498.939-3.796 7.71-32.084 1.767-31.148-3.121 11.209-6.163 22.439-9.311 33.641-1.694 6.03-3.419 12.053-5.203 18.058-1.366 4.6-2.032 7.661 2.857 9.947.758-2.214-3.656-1.71 0 0z" fill-rule="evenodd" transform="matrix(-1 0 0 1 448.208 0)"/></svg>